<?xml version="1.0" standalone="no"?>
<!DOCTYPE svg PUBLIC "-//W3C//DTD SVG 20010904//EN"
 "http://www.w3.org/TR/2001/REC-SVG-20010904/DTD/svg10.dtd">
<svg version="1.0" xmlns="http://www.w3.org/2000/svg"
 width="200.000000pt" height="56.000000pt" viewBox="0 0 200.000000 56.000000"
 preserveAspectRatio="xMidYMid meet">

<g transform="translate(0.000000,56.000000) scale(0.100000,-0.100000)"
fill="#000000" stroke="none">
<path d="M320 280 l0 -240 51 0 c62 0 101 21 123 67 13 27 16 69 16 223 l0
190 -95 0 -95 0 0 -240z"/>
<path d="M612 298 c-2 -52 -6 -69 -19 -77 -17 -10 -17 -10 0 -11 24 0 29 16
24 91 l-3 64 -2 -67z"/>
<path d="M670 285 l0 -75 39 0 c53 0 85 27 85 73 0 52 -27 77 -81 77 l-43 0 0
-75z m94 49 c9 -8 16 -31 16 -49 0 -40 -33 -69 -72 -63 -21 3 -23 9 -26 66
l-3 62 35 0 c19 0 42 -7 50 -16z"/>
<path d="M907 342 c-26 -28 -22 -97 5 -116 26 -18 56 -20 78 -6 11 8 8 9 -13
4 -42 -10 -77 18 -77 61 0 45 24 68 66 63 18 -2 30 0 28 4 -10 15 -71 8 -87
-10z"/>
<path d="M1042 288 l-2 -78 48 2 47 1 -42 4 -42 4 -4 72 -3 72 -2 -77z"/>
<path d="M1161 346 c-24 -28 -24 -79 -1 -109 45 -57 129 -14 116 61 -7 48 -23
62 -66 62 -21 0 -43 -6 -49 -14z m96 -26 c27 -59 -18 -116 -72 -92 -21 10 -25
18 -25 55 0 52 15 69 55 65 20 -2 34 -11 42 -28z"/>
<path d="M1315 351 c29 -6 30 -8 36 -76 l5 -70 2 72 c2 70 3 72 30 76 15 2 -2
4 -38 4 -43 1 -55 -2 -35 -6z"/>
<path d="M1443 285 c0 -44 2 -63 4 -42 l4 37 49 0 49 0 4 -37 c2 -21 4 -2 4
42 0 44 -2 63 -4 42 l-4 -38 -47 3 c-45 3 -47 4 -53 38 -4 22 -6 5 -6 -45z"/>
<path d="M1613 285 c0 -44 2 -61 4 -37 2 23 2 59 0 80 -2 20 -4 1 -4 -43z"/>
<path d="M1662 283 c1 -57 3 -64 5 -28 6 82 10 83 59 17 25 -34 48 -62 50 -62
2 0 3 35 2 78 l-1 77 -6 -65 -6 -65 -45 62 c-25 34 -48 63 -52 63 -5 0 -7 -35
-6 -77z"/>
<path d="M1836 338 c-40 -57 -3 -132 62 -126 35 3 37 5 40 41 3 33 1 37 -20
36 -17 -1 -18 -3 -5 -6 22 -6 23 -51 1 -60 -54 -21 -103 51 -69 103 15 23 22
26 56 21 22 -3 37 -1 33 4 -3 5 -23 9 -44 9 -29 0 -43 -6 -54 -22z"/>
<path d="M40 165 c0 -80 41 -116 142 -123 l68 -5 0 82 0 81 -105 0 -105 0 0
-35z"/>
</g>
</svg>
